<?xml version="1.0" standalone="no"?>
<!DOCTYPE svg PUBLIC "-//W3C//DTD SVG 1.1//EN" "http://www.w3.org/Graphics/SVG/1.1/DTD/svg11.dtd" >
<svg xmlns="http://www.w3.org/2000/svg">
<metadata>Generated by IcoMoon</metadata>
<defs>
<font id="icomoon" horiz-adv-x="1024">
<font-face units-per-em="1024" ascent="960" descent="-64" />
<missing-glyph horiz-adv-x="1024" />
<glyph unicode="&#x20;" horiz-adv-x="512" d="" />
<glyph unicode="&#xe900;" glyph-name="airplane-ticket" d="M721.92 360.96v0c-20.48-15.36-51.2-33.28-92.16-51.2l-79.36-125.44-2.56-2.56-38.4-15.36h-7.68l-2.56 7.68 33.28 99.84h-2.56c-84.48-28.16-161.28-43.52-161.28-43.52v0 0 0l-5.12 2.56-74.24 81.92-2.56 5.12 5.12 5.12 23.040 10.24h7.68l66.56-33.28c23.040 10.24 56.32 25.6 94.72 40.96 28.16 12.8 58.88 25.6 87.040 38.4 35.84 15.36 66.56 28.16 84.48 35.84 23.040 10.24 43.52 15.36 58.88 15.36 28.16 2.56 40.96-2.56 48.64-12.8v-5.12c0-15.36-10.24-28.16-40.96-53.76zM409.6 378.88l38.4 15.36h5.12l81.92-12.8c-25.6-10.24-53.76-23.040-79.36-33.28l-46.080 17.92-5.12 5.12 5.12 7.68zM819.2 504.32h-581.12l355.84 217.6c20.48 10.24 28.16-2.56 28.16-2.56l17.92-25.6-235.52-143.36h145.92l130.56 81.92 61.44-81.92h61.44l-151.040 212.48c-25.6 35.84-74.24 10.24-74.24 10.24l-399.36-240.64c-25.6-15.36-25.6-38.4-25.6-38.4v-335.36c0 0-7.68-40.96 46.080-40.96h624.64c0 0 43.52-2.56 43.52 40.96v307.2c2.56-5.12 2.56 40.96-48.64 38.4z" />
<glyph unicode="&#xe901;" glyph-name="arrow-right" d="M584.533 162.133l-59.733 59.733 183.467 183.467h-494.933v85.333h494.933l-183.467 183.467 59.733 59.733 285.867-285.867-29.867-29.867z" />
<glyph unicode="&#xe902;" glyph-name="baby" d="M478.72 286.72l-79.36 76.8-74.24-69.12c-35.84-35.84 0-74.24 0-74.24l89.6-89.6c0 0 25.6-25.6 48.64-7.68 0 0 28.16 17.92 0 53.76l-38.4 40.96c0 0-10.24 5.12 5.12 17.92l48.64 51.2zM512 627.2c51.2 0 92.16 40.96 92.16 89.6s-40.96 89.6-92.16 89.6c-51.2 0-92.16-40.96-92.16-89.6s40.96-89.6 92.16-89.6zM622.080 366.080l-79.36-76.8 51.2-53.76c12.8-12.8 5.12-17.92 5.12-17.92l-40.96-43.52c-28.16-33.28 0-53.76 0-53.76 23.040-17.92 48.64 7.68 48.64 7.68l89.6 89.6c0 0 35.84 38.4 0 74.24l-74.24 74.24zM611.84 586.24c0 0-10.24 12.8-38.4 12.8h-122.88c-25.6 0-43.52-17.92-43.52-17.92l-125.44-128c0 0-28.16-28.16-5.12-51.2 0 0 20.48-23.040 53.76 7.68l79.36 76.8v-79.36h207.36v79.36l79.36-74.24c33.28-30.72 53.76-7.68 53.76-7.68 20.48 23.040-5.12 51.2-5.12 51.2l-133.12 130.56z" />
<glyph unicode="&#xe903;" glyph-name="backpack" d="M775.68 294.4c-5.12-12.8-15.36-23.040-28.16-30.72 2.56 46.080-2.56 92.16-20.48 133.12-20.48 51.2-28.16 92.16-28.16 120.32 7.68-12.8 17.92-28.16 30.72-43.52 35.84-56.32 66.56-133.12 46.080-179.2zM291.84 396.8c-15.36-43.52-23.040-89.6-20.48-135.68-12.8 7.68-25.6 17.92-30.72 30.72-20.48 46.080 7.68 122.88 46.080 179.2 12.8 17.92 23.040 33.28 33.28 48.64 0-28.16-7.68-66.56-28.16-122.88zM724.48 578.56c-33.28-81.92-102.4-122.88-215.040-122.88-115.2 0-181.76 38.4-215.040 122.88-12.8-20.48-28.16-43.52-48.64-74.24-46.080-66.56-81.92-163.84-51.2-232.96 12.8-25.6 38.4-58.88 97.28-74.24 5.12-10.24 10.24-20.48 17.92-28.16 5.12-5.12 17.92-10.24 33.28-12.8 2.56 33.28 7.68 94.72 17.92 130.56 20.48 66.56 69.12 97.28 151.040 97.28s128-30.72 151.040-97.28c10.24-33.28 17.92-97.28 17.92-130.56 15.36 2.56 28.16 7.68 33.28 15.36 7.68 7.68 15.36 17.92 17.92 28.16 56.32 15.36 81.92 46.080 94.72 74.24 30.72 71.68-7.68 166.4-51.2 232.96-23.040 28.16-38.4 53.76-51.2 71.68zM307.2 668.16c2.56-23.040 7.68-43.52 15.36-66.56 17.92-53.76 56.32-107.52 184.32-107.52 130.56 0 166.4 53.76 184.32 107.52 7.68 23.040 15.36 53.76 17.92 81.92-5.12 15.36-23.040 28.16-43.52 38.4-25.6 15.36-58.88 33.28-156.16 33.28s-130.56-17.92-158.72-33.28c-23.040-10.24-46.080-28.16-43.52-48.64 0 0 0-2.56 0-5.12zM506.88 250.88c-33.28 0-58.88 12.8-58.88 30.72s25.6 30.72 58.88 30.72 58.88-12.8 58.88-30.72c2.56-17.92-25.6-30.72-58.88-30.72zM506.88 355.84c-87.040 0-110.080-38.4-122.88-76.8-10.24-33.28-15.36-97.28-17.92-128 61.44-10.24 143.36-10.24 143.36-10.24s79.36 0 140.8 10.24c-2.56 30.72-7.68 94.72-17.92 128-12.8 35.84-38.4 76.8-125.44 76.8z" />
<glyph unicode="&#xe904;" glyph-name="barrier" d="M791.040 729.6h-532.48c-30.72 0-53.76-23.040-53.76-51.2v-468.48c0-25.6 17.92-43.52 43.52-43.52h10.24c23.040 0 43.52 17.92 43.52 40.96v189.44h448v-186.88c0-23.040 17.92-40.96 43.52-40.96h10.24c23.040 0 43.52 17.92 43.52 40.96v468.48c-2.56 28.16-25.6 51.2-56.32 51.2zM791.040 652.8l-192-204.8h-133.12l212.48 230.4h112.64v-25.6zM302.080 678.4l-43.52-43.52v43.52h43.52zM258.56 448v58.88l168.96 171.52h130.56l-212.48-230.4h-87.040zM750.080 448h-25.6l69.12 74.24v-74.24h-43.52z" />
<glyph unicode="&#xe905;" glyph-name="building" d="M253.44 657.92l-81.92-76.8h71.68v-294.4h51.2v294.4h442.88v-294.4h51.2v294.4h89.6l-81.92 76.8h-542.72zM565.76 540.16h-97.28v-58.88h97.28v58.88zM565.76 453.12h-97.28v-58.88h97.28v58.88zM683.52 540.16h-69.12v-58.88h69.12v58.88zM683.52 453.12h-69.12v-58.88h69.12v58.88zM683.52 366.080h-69.12v-58.88h69.12v58.88zM419.84 540.16h-69.12v-58.88h69.12v58.88zM419.84 453.12h-69.12v-58.88h69.12v58.88zM419.84 366.080h-69.12v-58.88h69.12v58.88zM698.88 755.2h-345.6l-81.92-76.8h504.32l-76.8 76.8zM860.16 197.12v30.72c0 5.12-2.56 10.24-7.68 15.36s-10.24 5.12-15.36 7.68h-222.72v-51.2h-48.64v120.32h-97.28v-122.88h-48.64v51.2h-225.28c-5.12 0-10.24-2.56-15.36-5.12-5.12-5.12-7.68-10.24-7.68-15.36v-30.72c-10.24-2.56-17.92-10.24-17.92-17.92v-15.36h727.040v15.36c0 7.68-7.68 15.36-20.48 17.92z" />
<glyph unicode="&#xe906;" glyph-name="burger-close" d="M558.933 452.267l315.733 315.733-46.933 46.933-315.733-320-315.733 320-46.933-46.933 315.733-315.733-320-320 46.933-46.933 320 320 320-320 46.933 46.933-320 320z" />
<glyph unicode="&#xe907;" glyph-name="burger-close-desktop" d="M512 405.333l320-320 59.733 59.733-320 320 302.933 302.933-59.733 59.733-302.933-302.933-302.933 302.933-59.733-59.733 302.933-302.933-320-320 59.733-59.733 320 320z" />
<glyph unicode="&#xe908;" glyph-name="burger-rest" d="M981.333 704h-938.667v64h938.667v-64zM640 405.333h-597.333v64h597.333v-64zM42.667 106.667h768v64h-768v-64z" />
<glyph unicode="&#xe909;" glyph-name="burger-rest-desktop" d="M981.333 704h-938.667v85.333h938.667v-85.333zM640 405.333h-597.333v85.333h597.333v-85.333zM42.667 106.667h768v85.333h-768v-85.333z" />
<glyph unicode="&#xe90a;" glyph-name="car" d="M276.48 522.24c15.36 30.72 28.16 64 46.080 99.84 10.24 17.92 20.48 33.28 40.96 33.28h299.52c20.48-2.56 30.72-17.92 40.96-33.28 17.92-35.84 30.72-66.56 46.080-99.84h-473.6zM417.28 394.24h189.44c12.8 0 20.48-10.24 20.48-20.48s-7.68-20.48-20.48-20.48h-189.44c-10.24 0-20.48 10.24-20.48 20.48s10.24 20.48 20.48 20.48zM360.96 704c-33.28 0-51.2-12.8-79.36-48.64l-43.52-99.84h-66.56c-10.24 0-30.72-56.32 40.96-56.32l-23.040-58.88c0-74.24 0-145.92 0-220.16 0-15.36 12.8-28.16 28.16-28.16h92.16c15.36 0 25.6 12.8 25.6 28.16v61.44h350.72v-61.44c0-15.36 12.8-28.16 28.16-28.16h92.16c15.36 0 25.6 12.8 25.6 28.16 0 74.24 0 145.92 0 220.16l-23.040 58.88c71.68 2.56 51.2 56.32 40.96 56.32h-66.56l-40.96 99.84c-25.6 38.4-46.080 48.64-79.36 48.64h-302.080zM734.72 435.2c25.6 0 46.080-20.48 43.52-43.52 0-23.040-17.92-43.52-43.52-43.52-23.040 0-43.52 20.48-43.52 43.52s20.48 43.52 43.52 43.52zM289.28 435.2c23.040 0 43.52-20.48 43.52-43.52s-20.48-43.52-43.52-43.52c-25.6 0-43.52 20.48-43.52 43.52s17.92 43.52 43.52 43.52z" />
<glyph unicode="&#xe90b;" glyph-name="comment-points" d="M716.8 704h-409.6c-28.16 0-51.2-23.040-51.2-51.2v-460.8l102.4 102.4h358.4c28.16 0 51.2 23.040 51.2 51.2v307.2c0 28.16-23.040 51.2-51.2 51.2zM435.2 473.6h-51.2v51.2h51.2v-51.2zM537.6 473.6h-51.2v51.2h51.2v-51.2zM640 473.6h-51.2v51.2h51.2v-51.2z" />
<glyph unicode="&#xe90c;" glyph-name="digital-rathaus" d="M627.2 680.96c7.68-7.68 12.8-20.48 12.8-30.72v-202.24h81.92v204.8c0 69.12-53.76 122.88-122.88 122.88h-245.76c-69.12 0-122.88-53.76-122.88-122.88v-409.6c0-69.12 53.76-122.88 122.88-122.88h184.32v81.92h-184.32c-23.040 0-40.96 17.92-40.96 40.96v407.040c0 10.24 5.12 23.040 12.8 30.72s17.92 12.8 30.72 12.8c10.24 0 20.48 0 28.16 0 2.56-2.56 5.12-5.12 5.12-10.24v-25.6c0-15.36 10.24-25.6 25.6-25.6h128c15.36 0 25.6 10.24 25.6 25.6v25.6c0 5.12 2.56 7.68 5.12 10.24 7.68 0 15.36 0 23.040 0 10.24 0 23.040-5.12 30.72-12.8zM721.92 386.56l-122.88-102.4v-163.84h81.92v81.92h81.92v-81.92h81.92v163.84z" />
<glyph unicode="&#xe90d;" glyph-name="dog" d="M540.16 512h-227.84l-115.2 30.72c0 0-17.92 5.12-17.92-10.24 0-5.12 2.56-12.8 5.12-17.92s7.68-10.24 12.8-12.8l97.28-64v-286.72c0 0 0-10.24 10.24-10.24h25.6c15.36 0 20.48 20.48 20.48 20.48l33.28 158.72 222.72-30.72c7.68-56.32 20.48-145.92 33.28-145.92h43.52c7.68 0 7.68 10.24 7.68 10.24v268.8l-151.040 89.6zM844.8 640c-20.48 15.36-145.92 38.4-222.72 53.76-10.24 12.8-23.040 33.28-35.84 48.64-20.48 25.6-28.16 0-28.16 0v-186.88l135.68-79.36v38.4c48.64 0 94.72 5.12 110.080 23.040 58.88 69.12 61.44 89.6 40.96 102.4zM248.32 732.16l-12.8-33.28 289.28-171.52 12.8 33.28-289.28 171.52z" />
<glyph unicode="&#xe90e;" glyph-name="download" d="M533.333 298.667l200.533 200.533-46.933 46.933-145.067-145.067v430.933h-64v-435.2l-140.8 145.067-46.933-46.933 221.867-221.867 21.333 25.6zM256 64h512v64h-512v-64z" />
<glyph unicode="&#xe90f;" glyph-name="euro" d="M683.52 289.28l-2.56-2.56zM578.56 171.52c64 0 122.88 25.6 168.96 71.68 0 0 0 2.56 0 5.12s0 2.56 0 5.12l-53.76 46.080c0 0 0-2.56-2.56-5.12v-2.56c-28.16-30.72-66.56-48.64-107.52-48.64-58.88 0-110.080 33.28-143.36 92.16l-10.24 15.36h156.16c2.56 0 2.56 0 2.56 2.56v48.64c0 2.56 0 2.56-2.56 2.56h-176.64v38.4c0 2.56 0 7.68 0 12.8s2.56 10.24 2.56 15.36v10.24h168.96c2.56 0 2.56 0 2.56 2.56v48.64c0 2.56 0 2.56-2.56 2.56h-156.16l10.24 15.36c33.28 56.32 87.040 92.16 143.36 92.16 38.4 0 76.8-15.36 107.52-46.080 2.56-2.56 5.12 0 5.12 0l53.76 48.64c0 2.56 0 2.56 2.56 2.56 0 0 0 2.56 0 2.56 0 2.56 0 2.56 0 5.12-48.64 48.64-104.96 71.68-168.96 71.68-102.4 0-194.56-71.68-232.96-179.2v-7.68h-66.56c-2.56 0-2.56 0-2.56-2.56v-48.64c0-2.56 0-2.56 2.56-2.56h53.76v-71.68h-53.76c-2.56 0-2.56 0-2.56-2.56v-48.64c0-2.56 0-2.56 2.56-2.56h66.56v-7.68c38.4-110.080 130.56-181.76 232.96-181.76z" />
<glyph unicode="&#xe910;" glyph-name="external-link" d="M768 738.133h29.867v-213.333h-64v102.4l-264.533-264.533-42.667 42.667 264.533 268.8h-102.4v64h179.2zM290.133 738.133h221.867v-64h-221.867v-448h448v221.867h64v-221.867c0-34.133-29.867-64-64-64h-448c-34.133 0-64 29.867-64 64v448c0 34.133 29.867 64 64 64z" />
<glyph unicode="&#xe911;" glyph-name="facebook" d="M896 448c0 213.333-170.667 384-384 384s-384-170.667-384-384c0-192 140.8-349.867 324.267-379.733v268.8h-98.133v110.933h98.133v85.333c0 98.133 55.467 149.333 145.067 149.333 42.667 0 85.333-8.533 85.333-8.533v-93.867h-46.933c-46.933 0-64-29.867-64-59.733v-72.533h106.667l-17.067-110.933h-89.6v-268.8c183.467 29.867 324.267 187.733 324.267 379.733z" />
<glyph unicode="&#xe912;" glyph-name="face-mask" d="M796.16 473.6c2.56 10.24 2.56 17.92 2.56 28.16 0 17.92-2.56 38.4-10.24 53.76l92.16 15.36-7.68 38.4-122.88-12.8c-2.56 2.56-7.68 5.12-12.8 5.12l-171.52 23.040c-35.84 5.12-74.24 5.12-110.080 0l-168.96-23.040c-5.12 0-10.24-2.56-15.36-5.12l-122.88 12.8-7.68-38.4 92.16-15.36c-7.68-17.92-10.24-35.84-10.24-53.76 0-10.24 0-17.92 2.56-28.16l-84.48-15.36 7.68-38.4 89.6 15.36c5.12-10.24 15.36-20.48 25.6-28.16l156.16-107.52c25.6-20.48 58.88-30.72 89.6-30.72 33.28 0 64 10.24 89.6 30.72l158.72 107.52c10.24 7.68 17.92 17.92 25.6 28.16l89.6-15.36 7.68 38.4-84.48 15.36z" />
<glyph unicode="&#xe913;" glyph-name="facts" d="M542.72 755.2v-61.44h215.040c33.28 0 61.44-28.16 61.44-61.44v-304.64c0-33.28-28.16-61.44-61.44-61.44h-135.68l53.76-94.72-53.76-30.72-71.68 125.44h-76.8l-71.68-125.44-53.76 30.72 53.76 94.72h-135.68c-33.28 0-61.44 28.16-61.44 61.44v304.64c0 33.28 28.16 61.44 61.44 61.44h215.040v61.44h61.44zM542.72 491.52l-61.44 61.44-143.36-143.36 43.52-43.52 102.4 99.84 61.44-61.44 112.64 112.64 40.96-38.4v122.88h-122.88l40.96-38.4-74.24-71.68z" />
<glyph unicode="&#xe914;" glyph-name="file-pdf" d="M597.333 874.667h-341.333c-46.933 0-85.333-38.4-85.333-85.333v-682.667c0-46.933 38.4-85.333 85.333-85.333h512c46.933 0 85.333 38.4 85.333 85.333v512l-256 256zM682.667 192h-341.333v85.333h341.333v-85.333zM682.667 362.667h-341.333v85.333h341.333v-85.333zM554.667 576v234.667l234.667-234.667h-234.667z" />
<glyph unicode="&#xe915;" glyph-name="form" d="M678.4 202.24l-51.2-15.36c-5.12-2.56-7.68-2.56-12.8-2.56-12.8 0-25.6 5.12-35.84 15.36-7.68 10.24-12.8 23.040-10.24 38.4l5.12 25.6h-186.88c-12.8 0-20.48 10.24-20.48 20.48s10.24 20.48 20.48 20.48h197.12c2.56 2.56 2.56 5.12 5.12 7.68l148.48 171.52v184.32c0 20.48-15.36 35.84-35.84 35.84h-53.76v23.040c0 20.48-15.36 33.28-33.28 33.28s-33.28-15.36-33.28-33.28v-23.040h-53.76v23.040c0 20.48-15.36 33.28-33.28 33.28s-33.28-15.36-33.28-33.28v-23.040h-53.76v23.040c0 20.48-15.36 33.28-33.28 33.28s-33.28-15.36-33.28-33.28v-23.040h-53.76c-20.48 0-35.84-15.36-35.84-35.84v-499.2c0-20.48 15.36-35.84 35.84-35.84h419.84c20.48 0 35.84 15.36 35.84 35.84v89.6l-38.4-43.52c-10.24-7.68-17.92-10.24-25.6-12.8v0zM386.56 578.56h212.48c12.8 0 20.48-10.24 20.48-20.48s-10.24-20.48-20.48-20.48h-212.48c-12.8 0-20.48 10.24-20.48 20.48-2.56 12.8 7.68 20.48 20.48 20.48zM386.56 442.88h212.48c12.8 0 20.48-10.24 20.48-20.48s-10.24-20.48-20.48-20.48h-212.48c-12.8 0-20.48 10.24-20.48 20.48-2.56 10.24 7.68 20.48 20.48 20.48zM604.16 232.96c-2.56-7.68 7.68-15.36 15.36-12.8l51.2 15.36c2.56 0 5.12 2.56 5.12 2.56l15.36 15.36-61.44 53.76-15.36-15.36c-2.56-2.56-2.56-5.12-2.56-7.68l-7.68-51.2zM647.68 327.68l61.44-53.76 125.44 143.36-61.44 53.76-125.44-143.36zM875.52 483.84l-43.52 38.4c-5.12 5.12-12.8 5.12-17.92 0l-25.6-28.16 61.44-53.76 25.6 28.16c5.12 2.56 5.12 10.24 0 15.36v0z" />
<glyph unicode="&#xe916;" glyph-name="full-screen-close" d="M341.333 576h42.667v213.333h-85.333v-128h-128v-85.333h170.667zM384 277.333v42.667h-213.333v-85.333h128v-128h85.333v170.667zM725.333 234.667h128v85.333h-213.333v-213.333h85.333v128zM640 618.667v-42.667h213.333v85.333h-128v128h-85.333v-170.667z" />
<glyph unicode="&#xe917;" glyph-name="full-screen-open" d="M213.333 789.333h-42.667v-256h85.333v170.667h170.667v85.333h-213.333zM170.667 149.333v-42.667h256v85.333h-170.667v170.667h-85.333v-213.333zM768 192h-170.667v-85.333h256v256h-85.333v-170.667zM853.333 746.667v42.667h-256v-85.333h170.667v-170.667h85.333v213.333z" />
<glyph unicode="&#xe918;" glyph-name="graduate-hat" d="M665.6 478.72l-117.76-56.32c-12.8-5.12-25.6-7.68-40.96-7.68-12.8 0-28.16 2.56-40.96 7.68l-133.12 61.44-33.28-115.2c-2.56-7.68-2.56-17.92 0-25.6s5.12-15.36 10.24-23.040c0 0 61.44-76.8 189.44-76.8 140.8 0 189.44 74.24 189.44 74.24 7.68 15.36 12.8 33.28 7.68 48.64l-30.72 112.64zM819.2 609.28l-284.16 115.2c-17.92 7.68-40.96 7.68-58.88 0l-284.16-115.2c-15.36-7.68-15.36-17.92 0-25.6l286.72-138.24c10.24-2.56 17.92-5.12 28.16-5.12s20.48 2.56 28.16 5.12l240.64 115.2v-176.64h-10.24l-12.8-207.36h66.56l-12.8 207.36h-10.24v186.88c0 0 0 0 0 0l23.040 10.24c17.92 10.24 17.92 20.48 0 28.16z" />
<glyph unicode="&#xe919;" glyph-name="heart" d="M665.6 701.44c-128 23.040-166.4-107.52-166.4-107.52s-38.4 130.56-166.4 107.52c-84.48-15.36-128-79.36-130.56-158.72 2.56-204.8 296.96-350.72 296.96-350.72s296.96 145.92 294.4 350.72c0 76.8-43.52 143.36-128 158.72z" />
<glyph unicode="&#xe91a;" glyph-name="house" d="M808.96 488.96l-58.88 58.88v140.8c0 23.040-17.92 40.96-40.96 40.96h-40.96c-23.040 0-40.96-17.92-40.96-40.96v-23.040l-79.36 79.36c-7.68 10.24-17.92 23.040-35.84 23.040s-28.16-12.8-40.96-23.040l-256-256c-12.8-12.8-23.040-23.040-23.040-40.96 0-23.040 17.92-40.96 40.96-40.96h40.96v-240.64c0-23.040 17.92-40.96 40.96-40.96h120.32v199.68c0 23.040 17.92 40.96 40.96 40.96h79.36c23.040 0 40.96-17.92 40.96-40.96v-199.68h120.32c23.040 0 40.96 17.92 40.96 40.96v240.64h40.96c23.040 0 40.96 17.92 40.96 40.96-7.68 17.92-17.92 28.16-30.72 40.96z" />
<glyph unicode="&#xe91b;" glyph-name="id-card" d="M778.24 517.12c0-2.56 0-5.12-2.56-5.12-2.56-2.56-2.56-2.56-5.12-2.56h-181.76c-2.56 0-5.12 0-5.12 2.56-2.56 2.56-2.56 2.56-2.56 5.12v23.040c0 2.56 0 5.12 2.56 5.12 2.56 2.56 2.56 2.56 5.12 2.56h179.2c2.56 0 5.12 0 5.12-2.56 2.56-2.56 2.56-2.56 2.56-5.12v-23.040zM778.24 424.96c0-2.56 0-5.12-2.56-5.12-2.56-2.56-2.56-2.56-5.12-2.56h-181.76c-2.56 0-5.12 0-5.12 2.56-2.56 2.56-2.56 2.56-2.56 5.12v23.040c0 2.56 0 5.12 2.56 5.12 2.56 2.56 2.56 2.56 5.12 2.56h179.2c2.56 0 5.12 0 5.12-2.56 2.56-2.56 2.56-2.56 2.56-5.12v-23.040zM706.56 332.8c0-2.56 0-5.12-2.56-5.12-2.56-2.56-2.56-2.56-5.12-2.56h-110.080c-2.56 0-5.12 0-5.12 2.56-2.56 2.56-2.56 2.56-2.56 5.12v23.040c0 2.56 0 5.12 2.56 5.12 2.56 2.56 2.56 2.56 5.12 2.56h110.080c2.56 0 5.12 0 5.12-2.56s2.56-2.56 2.56-5.12v-23.040zM519.68 320c-2.56 2.56-5.12 5.12-7.68 5.12-7.68 5.12-74.24 23.040-79.36 35.84-5.12 10.24 0 35.84 0 35.84 5.12 10.24 10.24 20.48 12.8 30.72 0 0 0 0 0 0 7.68 0 15.36 12.8 15.36 23.040 2.56 10.24 2.56 20.48-5.12 20.48 0 0 0 0-2.56 0 12.8 38.4-12.8 79.36-61.44 79.36-51.2 0-74.24-40.96-61.44-79.36 0 0 0 0-2.56 0-7.68 0-7.68-10.24-5.12-20.48s7.68-23.040 15.36-23.040c0 0 0 0 0 0 2.56-10.24 7.68-20.48 12.8-30.72 0 0 5.12-23.040 0-35.84-5.12-10.24-69.12-30.72-79.36-35.84-2.56-2.56-5.12-2.56-7.68-5.12v238.080c0 5.12 2.56 7.68 5.12 10.24s7.68 5.12 10.24 5.12h220.16c5.12 0 7.68-2.56 10.24-5.12s5.12-7.68 5.12-10.24v-238.080zM729.6 192v0h87.040c10.24 0 20.48 5.12 28.16 12.8s12.8 17.92 12.8 28.16v430.080c0 10.24-5.12 20.48-12.8 28.16-5.12 7.68-15.36 12.8-25.6 12.8h-599.040c-10.24 0-20.48-5.12-28.16-12.8s-12.8-15.36-12.8-28.16v-432.64c0-10.24 5.12-20.48 12.8-28.16 7.68-5.12 15.36-10.24 28.16-10.24h509.44z" />
<glyph unicode="&#xe91c;" glyph-name="info" d="M404.48 463.36l-7.68-5.12c-2.56-2.56-5.12-5.12-7.68-10.24 0-5.12 0-7.68 2.56-12.8v-2.56c2.56-5.12 10.24-5.12 15.36-7.68v0c2.56 0 7.68 0 10.24-2.56 7.68-2.56 12.8-7.68 15.36-12.8 5.12-10.24 2.56-20.48 0-28.16-12.8-48.64-25.6-99.84-35.84-148.48-10.24-40.96 12.8-71.68 56.32-71.68 48.64 0 89.6 15.36 128 40.96v0c2.56 2.56 5.12 5.12 7.68 7.68 7.68 10.24 5.12 17.92-7.68 20.48-2.56 0-7.68 2.56-10.24 2.56-23.040 5.12-30.72 17.92-23.040 40.96 12.8 48.64 25.6 99.84 35.84 148.48 7.68 33.28-7.68 61.44-38.4 66.56-7.68 2.56-17.92 2.56-25.6 2.56-10.24 0-20.48-2.56-30.72-2.56-7.68 0-12.8-2.56-17.92-5.12-10.24-2.56-20.48-7.68-30.72-10.24-5.12-2.56-15.36-5.12-23.040-10.24h-12.8zM550.4 729.6c-20.48 0-40.96-7.68-56.32-23.040s-23.040-35.84-23.040-56.32c0-43.52 35.84-79.36 79.36-81.92 43.52 0 79.36 35.84 81.92 79.36 0 20.48-7.68 40.96-23.040 56.32-15.36 17.92-35.84 25.6-58.88 25.6v0z" />
<glyph unicode="&#xe91d;" glyph-name="instagram" d="M354.133 827.733c38.4 4.267 55.467 4.267 157.867 4.267s119.467 0 157.867-4.267c42.667 0 68.267-8.533 93.867-17.067s46.933-21.333 68.267-42.667c21.333-21.333 34.133-42.667 42.667-68.267s17.067-51.2 17.067-93.867c0-42.667 4.267-55.467 4.267-157.867s0-119.467-4.267-157.867c0-42.667-8.533-68.267-17.067-93.867s-21.333-46.933-42.667-68.267c-21.333-21.333-42.667-34.133-68.267-42.667s-51.2-17.067-93.867-17.067c-42.667 0-55.467-4.267-157.867-4.267s-119.467 0-157.867 4.267c-42.667 0-68.267 8.533-93.867 17.067s-46.933 21.333-68.267 42.667c-21.333 21.333-34.133 42.667-42.667 68.267s-17.067 51.2-17.067 93.867c-4.267 38.4-4.267 55.467-4.267 157.867s0 119.467 4.267 157.867c0 42.667 8.533 68.267 17.067 93.867s21.333 46.933 42.667 68.267c21.333 21.333 42.667 34.133 68.267 42.667s51.2 17.067 93.867 17.067zM665.6 759.467c-38.4 0-51.2 4.267-153.6 4.267s-115.2 0-153.6-4.267c-38.4 0-59.733-8.533-72.533-12.8-17.067-4.267-29.867-12.8-42.667-29.867-17.067-12.8-25.6-25.6-29.867-42.667-4.267-12.8-12.8-34.133-12.8-72.533s-4.267-51.2-4.267-153.6c0-102.4 0-115.2 4.267-153.6 0-38.4 8.533-59.733 12.8-72.533 8.533-17.067 17.067-29.867 29.867-42.667s25.6-21.333 42.667-29.867c12.8-4.267 34.133-12.8 72.533-12.8s51.2-4.267 153.6-4.267c102.4 0 115.2 0 153.6 4.267 38.4 0 59.733 8.533 72.533 12.8 17.067 8.533 29.867 17.067 42.667 29.867s21.333 25.6 29.867 42.667c4.267 12.8 12.8 34.133 12.8 72.533s4.267 51.2 4.267 153.6c0 102.4 0 115.2-4.267 153.6 0 38.4-8.533 59.733-12.8 72.533-8.533 17.067-17.067 29.867-29.867 42.667s-25.6 21.333-42.667 29.867c-12.8 4.267-34.133 12.8-72.533 12.8zM763.733 652.8c0 25.6-21.333 46.933-46.933 46.933s-46.933-21.333-46.933-46.933c0-25.6 21.333-46.933 46.933-46.933s46.933 21.333 46.933 46.933zM512 320c-72.533 0-128 55.467-128 128s55.467 128 128 128c72.533 0 128-55.467 128-128s-55.467-128-128-128zM512 644.267c-110.933 0-196.267-89.6-196.267-196.267 0-110.933 89.6-196.267 196.267-196.267 110.933 0 196.267 89.6 196.267 196.267 0 110.933-85.333 196.267-196.267 196.267z" />
<glyph unicode="&#xe91e;" glyph-name="judge-hammer" d="M204.8 366.080l202.24 181.76-43.52 43.52 125.44 125.44 148.48-148.48-125.44-128-46.080 43.52-181.76-202.24c-23.040-25.6-61.44-25.6-87.040-2.56-20.48 23.040-17.92 64 7.68 87.040zM581.12 355.84c-10.24-10.24-25.6-10.24-35.84 0l-23.040 23.040c-10.24 10.24-10.24 25.6 0 35.84l138.24 138.24c10.24 10.24 25.6 10.24 35.84 0l23.040-23.040c10.24-10.24 10.24-25.6 0-35.84l-138.24-138.24zM340.48 599.040c-10.24-10.24-25.6-10.24-35.84 0l-23.040 23.040c-10.24 10.24-10.24 25.6 0 35.84l138.24 138.24c10.24 10.24 25.6 10.24 35.84 0l23.040-23.040c10.24-10.24 10.24-25.6 0-35.84l-138.24-138.24zM378.88 184.32h435.2c17.92 0 33.28-15.36 33.28-35.84v-46.080c0-7.68-5.12-15.36-12.8-15.36h-476.16c-7.68 0-12.8 7.68-12.8 15.36v46.080c0 20.48 15.36 35.84 33.28 35.84zM427.52 258.56c0 17.92 15.36 33.28 33.28 33.28h268.8c17.92 0 33.28-15.36 33.28-33.28v-48.64h-335.36v48.64z" />
<glyph unicode="&#xe91f;" glyph-name="loader" d="M320 729.6c59.733 42.667 132.267 64 209.067 59.733 72.533-4.267 145.067-29.867 200.533-76.8s98.133-110.933 115.2-183.467c17.067-72.533 12.8-145.067-17.067-213.333s-76.8-123.733-140.8-162.133c-64-38.4-136.533-51.2-209.067-42.667s-140.8 38.4-196.267 89.6c-55.467 51.2-89.6 119.467-102.4 192l85.333 12.8c8.533-55.467 34.133-106.667 76.8-140.8 38.4-38.4 93.867-64 145.067-68.267 55.467-4.267 110.933 4.267 157.867 34.133s85.333 72.533 106.667 123.733c21.333 51.2 25.6 106.667 12.8 162.133s-42.667 102.4-85.333 136.533c-42.667 34.133-98.133 55.467-149.333 55.467-59.733 0-115.2-17.067-162.133-46.933l-46.933 68.267z" />
<glyph unicode="&#xe920;" glyph-name="location" d="M512 874.667c-166.4 0-298.667-132.267-298.667-298.667 0-221.867 298.667-554.667 298.667-554.667s298.667 332.8 298.667 554.667c0 166.4-132.267 298.667-298.667 298.667zM512 469.333c-59.733 0-106.667 46.933-106.667 106.667s46.933 106.667 106.667 106.667 106.667-46.933 106.667-106.667c0-59.733-46.933-106.667-106.667-106.667z" />
<glyph unicode="&#xe921;" glyph-name="mail" d="M853.333 789.333h-682.667c-46.933 0-85.333-38.4-85.333-85.333v-512c0-46.933 38.4-85.333 85.333-85.333h682.667c46.933 0 85.333 38.4 85.333 85.333v512c0 46.933-38.4 85.333-85.333 85.333zM853.333 618.667l-341.333-213.333-341.333 213.333v85.333l341.333-213.333 341.333 213.333v-85.333z" />
<glyph unicode="&#xe922;" glyph-name="parcel" d="M307.2 363.52l25.6-2.56v74.24h23.040l-35.84 48.64-33.28-51.2h17.92v-69.12zM363.52 437.76h23.040v-79.36l33.28-2.56v81.92h28.16l-46.080 56.32-38.4-56.32zM289.28 325.12l158.72-23.040v30.72l-158.72 17.92v-25.6zM757.76 284.16l-220.16-43.52v412.16h2.56l58.88-102.4 158.72-20.48v-245.76zM486.4 240.64l-220.16 43.52v245.76l158.72 20.48 58.88 102.4h2.56v-412.16zM803.84 632.32l-291.84 71.68-291.84-71.68-66.56-117.76 66.56 7.68v-273.92l291.84-56.32 291.84 56.32v273.92l66.56-7.68-66.56 117.76z" />
<glyph unicode="&#xe923;" glyph-name="parking" d="M819.2 622.080c5.12 12.8 0 25.6-12.8 30.72l-286.72 125.44c-5.12 2.56-12.8 2.56-17.92 0l-286.72-125.44c-10.24-5.12-15.36-17.92-10.24-30.72s17.92-17.92 30.72-12.8l276.48 122.88 279.040-122.88c2.56-2.56 5.12-2.56 7.68-2.56 10.24 0 17.92 5.12 20.48 15.36zM529.92 609.28h-151.040v-494.080h102.4v171.52h48.64c120.32 0 181.76 69.12 181.76 168.96 0 92.16-64 153.6-181.76 153.6zM522.24 363.52h-40.96v168.96h40.96c56.32 0 87.040-28.16 87.040-79.36 0-53.76-30.72-89.6-87.040-89.6z" />
<glyph unicode="&#xe924;" glyph-name="parliament" d="M762.88 276.48h-501.76c-2.56 0-2.56 0-5.12 0s-2.56-2.56-5.12-2.56c0 0-2.56-2.56-2.56-5.12s0-2.56 0-5.12v-17.92c0-2.56 0-2.56 0-5.12s2.56-2.56 2.56-5.12c0 0 2.56-2.56 5.12-2.56s2.56 0 5.12 0h501.76c2.56 0 2.56 0 5.12 0s2.56 2.56 5.12 2.56c0 0 2.56 2.56 2.56 5.12s0 2.56 0 5.12v17.92c0 2.56-2.56 7.68-2.56 10.24-2.56 2.56-7.68 2.56-10.24 2.56zM217.6 166.4h588.8c2.56 0 7.68 2.56 10.24 2.56 2.56 2.56 2.56 5.12 2.56 10.24v17.92c0 2.56-2.56 7.68-2.56 10.24-2.56 2.56-5.12 2.56-10.24 2.56h-588.8c-2.56 0-2.56 0-5.12 0s-2.56-2.56-5.12-2.56c0 0-2.56-2.56-2.56-5.12s0-2.56 0-5.12v-17.92c0-2.56 0-2.56 0-5.12s2.56-2.56 2.56-5.12c0 0 2.56-2.56 5.12-2.56s2.56 0 5.12 0zM540.16 307.2v148.48c15.36 2.56 25.6 12.8 25.6 35.84h-112.64c0-20.48 10.24-33.28 25.6-35.84v-148.48h61.44zM762.88 519.68v35.84l-250.88 174.080-250.88-174.080v-35.84h501.76zM345.6 307.2v148.48c15.36 2.56 25.6 12.8 25.6 35.84h-112.64c0-20.48 10.24-33.28 25.6-35.84v-148.48h61.44zM734.72 307.2v0l2.56 30.72v117.76c15.36 2.56 25.6 12.8 25.6 35.84h-112.64c0-20.48 10.24-33.28 25.6-35.84v-148.48h58.88z" />
<glyph unicode="&#xe925;" glyph-name="passport" d="M478.72 642.56c-25.6-7.68-48.64-23.040-64-46.080h46.080c5.12 17.92 12.8 33.28 17.92 46.080zM547.84 596.48c-5.12 25.6-15.36 43.52-25.6 51.2-2.56 0-7.68 0-10.24 0s-7.68 0-10.24 0c-10.24-7.68-17.92-25.6-25.6-51.2h71.68zM458.24 581.12h-51.2c-5.12-12.8-10.24-28.16-10.24-43.52h58.88c0 15.36 2.56 30.72 2.56 43.52zM550.4 581.12h-76.8c-2.56-12.8-2.56-28.16-5.12-43.52h84.48c0 15.36 0 30.72-2.56 43.52zM455.68 522.24h-58.88c0-15.36 5.12-30.72 10.24-43.52h51.2c0 12.8-2.56 28.16-2.56 43.52zM609.28 596.48c-15.36 23.040-38.4 38.4-64 46.080 7.68-10.24 12.8-28.16 17.92-46.080h46.080zM473.6 478.72h76.8c2.56 12.8 2.56 28.16 5.12 43.52h-84.48c0-15.36 2.56-30.72 2.56-43.52zM568.32 537.6h58.88c0 15.36-5.12 30.72-10.24 43.52h-53.76c5.12-12.8 5.12-28.16 5.12-43.52zM565.76 478.72h51.2c5.12 12.8 10.24 28.16 10.24 43.52h-58.88c0-15.36 0-30.72-2.56-43.52zM417.28 463.36c15.36-23.040 38.4-38.4 64-46.080-7.68 10.24-12.8 28.16-17.92 46.080h-46.080zM706.56 780.8h-389.12c-20.48 0-35.84-15.36-35.84-35.84v-570.88c0-20.48 15.36-35.84 35.84-35.84h391.68c20.48 0 35.84 15.36 35.84 35.84v570.88c-2.56 20.48-17.92 35.84-38.4 35.84zM593.92 281.6h-161.28c-7.68 0-12.8 5.12-12.8 12.8s5.12 12.8 12.8 12.8h161.28c7.68 0 12.8-5.12 12.8-12.8-2.56-7.68-7.68-12.8-12.8-12.8zM512 391.68c-76.8 0-138.24 61.44-138.24 138.24s61.44 138.24 138.24 138.24c76.8 0 138.24-61.44 138.24-138.24s-61.44-138.24-138.24-138.24zM478.72 463.36c5.12-25.6 15.36-43.52 25.6-51.2 2.56 0 7.68 0 10.24 0s7.68 0 10.24 0c10.24 7.68 17.92 25.6 25.6 51.2h-71.68zM545.28 417.28c25.6 7.68 48.64 23.040 64 46.080h-46.080c-5.12-17.92-12.8-33.28-17.92-46.080z" />
<glyph unicode="&#xe926;" glyph-name="phone" d="M281.6 499.2c59.733-119.467 162.133-217.6 281.6-281.6l93.867 93.867c12.8 12.8 29.867 17.067 42.667 8.533 46.933-17.067 98.133-25.6 153.6-25.6 21.333 0 42.667-17.067 42.667-42.667v-145.067c0-21.333-21.333-42.667-42.667-42.667-401.067 0-725.333 324.267-725.333 725.333 0 21.333 21.333 42.667 42.667 42.667h149.333c25.6 0 42.667-21.333 42.667-42.667 0-51.2 8.533-102.4 25.6-153.6 4.267-12.8 0-29.867-8.533-42.667l-98.133-93.867z" />
<glyph unicode="&#xe927;" glyph-name="phonebook" d="M304.64 755.2v-104.96h30.72c20.48 0 38.4-17.92 38.4-38.4s-17.92-38.4-38.4-38.4h-30.72v-248.32h30.72c20.48 0 38.4-17.92 38.4-38.4s-17.92-38.4-38.4-38.4h-30.72v-107.52h463.36v614.4h-463.36zM529.92 568.32c23.040 0 46.080-15.36 56.32-38.4s5.12-48.64-12.8-66.56c-17.92-17.92-43.52-23.040-64-12.8-23.040 10.24-35.84 30.72-35.84 56.32 0 15.36 5.12 30.72 17.92 43.52 7.68 12.8 23.040 17.92 38.4 17.92v0zM645.12 327.68h-230.4v5.12c0 48.64 28.16 92.16 74.24 107.52 25.6-15.36 56.32-15.36 81.92 0 43.52-17.92 74.24-61.44 74.24-107.52v-5.12zM335.36 591.36h-61.44c-10.24 0-20.48 7.68-20.48 20.48 0 10.24 7.68 20.48 20.48 20.48h61.44c10.24 0 20.48-7.68 20.48-20.48s-10.24-20.48-20.48-20.48zM335.36 266.24h-61.44c-10.24 0-20.48 7.68-20.48 20.48 0 10.24 7.68 20.48 20.48 20.48h61.44c10.24 0 20.48-7.68 20.48-20.48s-10.24-20.48-20.48-20.48z" />
<glyph unicode="&#xe928;" glyph-name="phone-bubble" d="M619.52 258.56c15.36-15.36 15.36-33.28 0-48.64-10.24-10.24-20.48-20.48-30.72-30.72-15.36-15.36-30.72-20.48-51.2-20.48-30.72 2.56-56.32 10.24-81.92 23.040-58.88 28.16-107.52 66.56-148.48 115.2-30.72 35.84-56.32 76.8-71.68 120.32-7.68 20.48-12.8 43.52-12.8 66.56 0 15.36 7.68 28.16 17.92 35.84 12.8 10.24 23.040 23.040 33.28 33.28 15.36 15.36 33.28 15.36 48.64 0l28.16-28.16c7.68-7.68 17.92-17.92 25.6-25.6 15.36-15.36 15.36-33.28 0-48.64-10.24-10.24-23.040-23.040-33.28-33.28-2.56-2.56-2.56-5.12-2.56-7.68 7.68-17.92 17.92-33.28 30.72-48.64 23.040-30.72 51.2-56.32 84.48-76.8 7.68-5.12 15.36-7.68 23.040-12.8 2.56-2.56 5.12 0 10.24 2.56 10.24 10.24 23.040 23.040 33.28 33.28 15.36 15.36 33.28 15.36 48.64 0 12.8-12.8 30.72-30.72 48.64-48.64v0zM801.28 555.52c0-102.4-81.92-184.32-184.32-184.32-33.28 0-66.56 10.24-94.72 25.6-28.16-20.48-56.32-23.040-76.8-20.48-7.68 0-7.68 10.24-2.56 12.8 17.92 7.68 30.72 25.6 35.84 40.96-30.72 33.28-48.64 76.8-48.64 122.88 0 102.4 81.92 184.32 184.32 184.32 104.96 0 186.88-81.92 186.88-181.76v0zM640 660.48c0 12.8-10.24 23.040-23.040 23.040-71.68 0-128-58.88-128-128 0-12.8 10.24-23.040 23.040-23.040s23.040 10.24 23.040 23.040c0 46.080 38.4 84.48 84.48 84.48 10.24 0 20.48 7.68 20.48 20.48v0z" />
<glyph unicode="&#xe929;" glyph-name="pin" d="M212.48 184.32c-17.92-17.92 7.68-40.96 25.6-25.6l199.68 176.64-48.64 48.64-176.64-199.68zM816.64 578.56l-181.76 181.76c-7.68 5.12-10.24 7.68-15.36 7.68-2.56 0-7.68-2.56-10.24-5.12-20.48-20.48-30.72-43.52-33.28-69.12l-161.28-135.68-112.64-12.8c-12.8-2.56-17.92-15.36-7.68-25.6l279.040-276.48c7.68-7.68 23.040-2.56 25.6 7.68l12.8 112.64 135.68 161.28c25.6 2.56 48.64 12.8 69.12 33.28 5.12 5.12 5.12 15.36 0 20.48z" />
<glyph unicode="&#xe92a;" glyph-name="play-cubes" d="M363.52 463.36h296.96c2.56 0 7.68 2.56 10.24 5.12s5.12 5.12 5.12 10.24v296.96c0 2.56-2.56 7.68-5.12 10.24s-5.12 5.12-10.24 5.12h-296.96c-7.68 0-12.8-5.12-12.8-12.8v-296.96c0-2.56 2.56-7.68 5.12-10.24s5.12-7.68 7.68-7.68v0zM407.040 660.48c2.56 5.12 7.68 10.24 12.8 10.24h58.88l17.92 56.32c2.56 5.12 7.68 10.24 12.8 10.24s10.24-2.56 12.8-10.24l17.92-56.32h58.88c5.12 0 10.24-2.56 12.8-10.24 2.56-5.12 0-12.8-5.12-15.36l-43.52-35.84 17.92-56.32c2.56-5.12 0-12.8-5.12-15.36s-10.24-2.56-15.36 0l-48.64 35.84-48.64-35.84c-5.12-2.56-10.24-2.56-15.36 0s-7.68 10.24-5.12 15.36l17.92 56.32-48.64 35.84c-5.12 2.56-5.12 10.24-5.12 15.36v0zM839.68 432.64h-296.96c-7.68 0-12.8-5.12-12.8-12.8v-296.96c0-2.56 2.56-7.68 5.12-10.24s5.12-5.12 10.24-5.12h296.96c2.56 0 7.68 2.56 10.24 5.12s5.12 5.12 5.12 10.24v294.4c0 2.56-2.56 7.68-5.12 10.24-7.68 2.56-10.24 5.12-12.8 5.12v0zM791.040 181.76c-2.56-5.12-7.68-7.68-12.8-7.68h-176.64c-5.12 0-10.24 2.56-12.8 7.68s-2.56 10.24 0 12.8l89.6 153.6c2.56 5.12 7.68 7.68 12.8 7.68s10.24-2.56 12.8-7.68l89.6-153.6c0-2.56 0-7.68-2.56-12.8v0zM481.28 432.64h-296.96c-7.68 0-12.8-5.12-12.8-12.8v-296.96c0-2.56 2.56-7.68 5.12-10.24s5.12-5.12 10.24-5.12h296.96c2.56 0 7.68 2.56 10.24 5.12s5.12 5.12 5.12 10.24v294.4c0 2.56-2.56 7.68-5.12 10.24-5.12 2.56-7.68 5.12-12.8 5.12v0zM332.8 166.4c-40.96 0-79.36 25.6-94.72 64s-7.68 81.92 23.040 112.64c28.16 28.16 74.24 38.4 112.64 23.040s64-53.76 64-94.72c0-58.88-46.080-104.96-104.96-104.96v0z" />
<glyph unicode="&#xe92b;" glyph-name="recycling" d="M824.32 368.64h-153.6l-38.4 66.56c-5.12 10.24-2.56 20.48 7.68 25.6l81.92 48.64c10.24 5.12 20.48 2.56 25.6-7.68l69.12-120.32c5.12-2.56 7.68-7.68 7.68-12.8v0zM824.32 327.68h-209.92v40.96c0 5.12-2.56 7.68-7.68 10.24s-10.24 0-12.8-2.56l-76.8-92.16c-10.24-12.8-10.24-30.72 0-46.080l76.8-92.16c2.56-2.56 7.68-5.12 12.8-2.56s7.68 5.12 7.68 10.24v38.4h94.72c23.040 0 46.080 12.8 58.88 33.28l51.2 89.6c2.56 5.12 2.56 7.68 5.12 12.8v0zM455.68 194.56c5.12 0 10.24 2.56 12.8 5.12s5.12 7.68 5.12 12.8l-2.56 97.28c0 10.24-7.68 17.92-17.92 17.92h-76.8l-76.8-133.12c5.12-2.56 10.24-2.56 15.36-2.56l140.8 2.56zM207.36 314.88l51.2-89.6c2.56-2.56 5.12-7.68 7.68-10.24l104.96 181.76 35.84-20.48c5.12-2.56 7.68-2.56 12.8 0 2.56 2.56 5.12 7.68 2.56 12.8l-43.52 112.64c-5.12 15.36-23.040 25.6-38.4 23.040l-117.76-20.48c-5.12 0-7.68-5.12-7.68-7.68 0-5.12 2.56-10.24 5.12-10.24l35.84-20.48-46.080-81.92c-15.36-23.040-15.36-48.64-2.56-69.12v0zM404.48 721.92l-69.12-120.32c-2.56-5.12-2.56-10.24-2.56-15.36 2.56-5.12 5.12-10.24 10.24-12.8l84.48-46.080c10.24-5.12 20.48-2.56 25.6 7.68l38.4 66.56-76.8 133.12c-2.56-5.12-7.68-7.68-10.24-12.8v0zM524.8 529.92l117.76-20.48c17.92-2.56 33.28 7.68 38.4 23.040l40.96 112.64c2.56 5.12 0 10.24-2.56 12.8s-7.68 2.56-12.8 0l-35.84-20.48-48.64 81.92c-10.24 23.040-33.28 35.84-56.32 35.84h-102.4c-5.12 0-7.68 0-12.8-2.56l104.96-181.76-35.84-20.48c-5.12-2.56-5.12-7.68-5.12-10.24 2.56-5.12 5.12-7.68 10.24-10.24v0z" />
<glyph unicode="&#xe92c;" glyph-name="search" d="M704 512c0 140.8-115.2 256-256 256s-256-115.2-256-256c0-140.8 115.2-256 256-256s256 115.2 256 256zM648.533 264.533c-51.2-46.933-123.733-72.533-200.533-72.533-174.933 0-320 145.067-320 320s145.067 320 320 320c174.933 0 320-145.067 320-320 0-76.8-25.6-149.333-72.533-200.533l200.533-204.8-42.667-42.667-204.8 200.533z" />
<glyph unicode="&#xe92d;" glyph-name="sign" d="M704 529.92c7.68 0 15.36 2.56 20.48 7.68l87.040 81.92c5.12 5.12 7.68 12.8 7.68 20.48s-2.56 15.36-7.68 20.48l-87.040 81.92c-5.12 5.12-12.8 7.68-20.48 7.68h-145.92v53.76c0 7.68-2.56 15.36-7.68 20.48-7.68 5.12-15.36 7.68-23.040 7.68h-58.88c-15.36 0-28.16-12.8-28.16-28.16v-53.76h-115.2c-33.28 0-58.88-25.6-58.88-53.76v-110.080c0-30.72 25.6-53.76 58.88-53.76h115.2v-28.16h-145.92c-7.68 0-15.36-2.56-20.48-7.68l-87.040-81.92c-5.12-7.68-7.68-15.36-7.68-20.48 0-7.68 2.56-15.36 7.68-20.48l87.040-81.92c5.12-5.12 12.8-7.68 20.48-7.68h145.92v-192c0-7.68 2.56-15.36 7.68-20.48s12.8-7.68 20.48-7.68h58.88c7.68 0 15.36 2.56 20.48 7.68s7.68 12.8 7.68 20.48v192h115.2c33.28 0 58.88 25.6 58.88 53.76v110.080c0 30.72-25.6 53.76-58.88 53.76h-115.2v28.16h148.48zM586.24 414.72c12.8 0 23.040-10.24 23.040-20.48s-10.24-20.48-23.040-20.48h-174.080c-12.8 0-23.040 10.24-23.040 20.48s10.24 20.48 23.040 20.48h174.080zM412.16 619.52c-12.8 0-23.040 10.24-23.040 20.48s10.24 20.48 23.040 20.48h174.080c12.8 0 23.040-10.24 23.040-20.48s-10.24-20.48-23.040-20.48h-174.080z" />
<glyph unicode="&#xe92e;" glyph-name="sofa" d="M793.6 399.36v66.56c0 20.48 17.92 38.4 38.4 38.4h12.8c20.48 0 38.4-17.92 38.4-38.4v-174.080c0-20.48-17.92-38.4-38.4-38.4h-5.12l-10.24-61.44c0-5.12-5.12-7.68-10.24-7.68s-7.68 2.56-10.24 7.68l-10.24 61.44h-576l-10.24-61.44c0-5.12-5.12-7.68-10.24-7.68s-7.68 2.56-10.24 7.68l-10.24 61.44h-2.56c-20.48 0-38.4 17.92-38.4 38.4v174.080c0 20.48 17.92 38.4 38.4 38.4h12.8c20.48 0 38.4-17.92 38.4-38.4v-66.56c0-28.16 23.040-51.2 51.2-51.2h455.68c30.72 0 56.32 23.040 56.32 51.2zM527.36 391.68c0-7.68 5.12-12.8 12.8-12.8h199.68c12.8 0 23.040 10.24 23.040 23.040v66.56c0 28.16 15.36 51.2 40.96 64v81.92c0 30.72-25.6 56.32-56.32 56.32h-207.36c-7.68 0-12.8-5.12-12.8-12.8v-266.24zM276.48 665.6h207.36c7.68 0 12.8-5.12 12.8-12.8v-261.12c0-7.68-5.12-12.8-12.8-12.8h-199.68c-12.8 0-23.040 10.24-23.040 23.040v66.56c0 28.16-15.36 51.2-40.96 64v81.92c0 25.6 25.6 51.2 56.32 51.2z" />
<glyph unicode="&#xe92f;" glyph-name="state-and-flag" d="M842.24 197.12l-58.88 161.28c-5.12 10.24-15.36 15.36-25.6 12.8l-174.080-51.2-84.48 17.92v-61.44c0-30.72-25.6-56.32-56.32-56.32s-56.32 25.6-56.32 56.32v84.48l-43.52 10.24c-7.68 2.56-12.8 0-17.92-5.12l-110.080-102.4c-7.68-5.12-7.68-17.92-5.12-25.6l64-112.64c2.56-5.12 10.24-10.24 17.92-10.24h381.44c2.56 0 5.12 0 7.68 0l148.48 53.76c5.12 2.56 10.24 5.12 12.8 10.24 0 7.68 0 12.8 0 17.92zM440.32 256c10.24 0 20.48 10.24 20.48 20.48v194.56h197.12c10.24 0 20.48 10.24 20.48 20.48v174.080c0 12.8-10.24 20.48-20.48 20.48h-197.12v23.040c0 10.24-10.24 20.48-20.48 20.48s-20.48-10.24-20.48-20.48v-432.64c0-10.24 7.68-20.48 20.48-20.48z" />
<glyph unicode="&#xe930;" glyph-name="suitcase" d="M391.68 693.76c-10.24 0-17.92-7.68-17.92-20.48v-69.12h-148.48c-5.12 0-10.24-2.56-12.8-5.12-5.12-2.56-7.68-7.68-7.68-12.8v-92.16h614.4v92.16c0 5.12-2.56 10.24-5.12 12.8s-7.68 5.12-12.8 5.12h-148.48v69.12c0 10.24-7.68 20.48-17.92 20.48h-243.2zM409.6 655.36h204.8v-48.64h-204.8v48.64zM204.8 455.68v-235.52c0-10.24 7.68-17.92 20.48-17.92h576c10.24 0 17.92 7.68 17.92 17.92v235.52h-614.4z" />
<glyph unicode="&#xe931;" glyph-name="swimmer" d="M803.84 299.52c-15.36 10.24-35.84 25.6-71.68 25.6s-56.32-15.36-71.68-25.6c-12.8-10.24-20.48-15.36-38.4-15.36s-25.6 5.12-38.4 15.36c-15.36 10.24-35.84 25.6-71.68 25.6s-56.32-15.36-71.68-25.6c-12.8-10.24-20.48-15.36-38.4-15.36s-25.6 5.12-38.4 15.36c-15.36 10.24-35.84 25.6-71.68 25.6s-56.32-15.36-71.68-25.6c-12.8-10.24-20.48-15.36-38.4-15.36v-92.16h657.92v92.16c-15.36 0-23.040 5.12-35.84 15.36v0zM404.48 337.92c0 0 0 0 0 0s0 0 0 0 0 0 0 0c2.56 2.56 5.12 2.56 5.12 5.12 17.92 12.8 48.64 38.4 104.96 38.4 53.76 0 87.040-23.040 104.96-38.4 2.56-2.56 5.12-2.56 5.12-5.12 2.56 2.56 5.12 2.56 5.12 5.12 5.12 5.12 12.8 10.24 20.48 15.36l-76.8 135.68 7.68 104.96 102.4 25.6c20.48 5.12 35.84 28.16 30.72 51.2s-28.16 35.84-48.64 30.72l-130.56-33.28c-15.36-5.12-28.16-17.92-30.72-38.4l-12.8-135.68-171.52-120.32c38.4-5.12 64-23.040 76.8-35.84 2.56-2.56 5.12-2.56 7.68-5.12v0zM791.040 496.64c0-48.64-38.4-87.040-87.040-87.040s-87.040 38.4-87.040 87.040c0 48.64 38.4 87.040 87.040 87.040s87.040-38.4 87.040-87.040z" />
<glyph unicode="&#xe932;" glyph-name="tip-down" d="M490.667 260.267l-285.867 285.867 59.733 59.733 226.133-226.133 226.133 226.133 59.733-59.733z" />
<glyph unicode="&#xe933;" glyph-name="tip-right" d="M413.867 162.133l-59.733 59.733 226.133 226.133-226.133 226.133 59.733 59.733 285.867-285.867z" />
<glyph unicode="&#xe934;" glyph-name="tip-up" d="M716.8 290.133l-226.133 226.133-226.133-226.133-59.733 59.733 285.867 285.867 285.867-285.867z" />
<glyph unicode="&#xe935;" glyph-name="twitter" d="M371.2 115.2c290.133 0 448 256 448 477.867 0 8.533 0 12.8 0 21.333 29.867 25.6 55.467 51.2 76.8 85.333-29.867-12.8-59.733-21.333-89.6-25.6 34.133 21.333 55.467 55.467 68.267 93.867-29.867-21.333-64-34.133-98.133-42.667-25.6 25.6-55.467 42.667-89.6 51.2-34.133 4.267-68.267 0-98.133-17.067s-55.467-46.933-68.267-76.8c-12.8-34.133-17.067-72.533-8.533-106.667-68.267 0-128 21.333-187.733 51.2s-102.4 72.533-140.8 123.733c-21.333-38.4-29.867-81.067-21.333-123.733s34.133-76.8 64-102.4c-25.6 0-51.2 8.533-72.533 21.333 0 0 0 0 0 0 0-38.4 12.8-76.8 34.133-106.667s55.467-51.2 89.6-59.733c-21.333-8.533-46.933-8.533-72.533-4.267 8.533-34.133 29.867-64 55.467-85.333s59.733-34.133 89.6-34.133c-55.467-46.933-123.733-72.533-196.267-72.533-12.8 0-25.6 0-38.4 4.267 85.333-46.933 170.667-72.533 256-72.533z" />
<glyph unicode="&#xe936;" glyph-name="video-pause" d="M320 226.133h128v443.733h-128v-443.733zM576 669.867v-448h128v448h-128z" />
<glyph unicode="&#xe937;" glyph-name="video-play" d="M384 704v-512l384 256-384 256z" />
<glyph unicode="&#xe938;" glyph-name="volume-muted" d="M704 448c0 76.8-42.667 140.8-106.667 170.667v-93.867l106.667-102.4c0 8.533 0 17.067 0 25.6zM810.667 448c0-38.4-8.533-76.8-21.333-110.933l64-64c29.867 51.2 42.667 110.933 42.667 174.933 0 183.467-128 337.067-298.667 375.467v-89.6c123.733-38.4 213.333-149.333 213.333-285.867zM183.467 832l-55.467-55.467 200.533-200.533h-200.533v-256h170.667l213.333-213.333v285.867l179.2-179.2c-29.867-21.333-59.733-38.4-93.867-51.2v-89.6c59.733 12.8 110.933 42.667 157.867 76.8l85.333-85.333 55.467 55.467-712.533 712.533zM512 789.333l-89.6-89.6 89.6-89.6v179.2z" />
<glyph unicode="&#xe939;" glyph-name="volume-unmuted" d="M128 576v-256h170.667l213.333-213.333v682.667l-213.333-213.333h-170.667zM704 448c0 76.8-42.667 140.8-106.667 170.667v-341.333c64 29.867 106.667 93.867 106.667 170.667zM597.333 823.467v-89.6c123.733-38.4 213.333-149.333 213.333-285.867s-89.6-251.733-213.333-285.867v-89.6c170.667 38.4 298.667 192 298.667 375.467s-128 337.067-298.667 375.467z" />
<glyph unicode="&#xe93a;" glyph-name="wedding-rings" d="M453.12 302.080c-35.84 40.96-51.2 87.040-51.2 145.92s15.36 104.96 51.2 145.92c17.92-7.68 33.28-17.92 46.080-33.28-28.16-30.72-43.52-69.12-43.52-112.64 0-46.080 12.8-81.92 43.52-112.64-12.8-15.36-30.72-25.6-46.080-33.28zM632.32 678.4c125.44 0 230.4-104.96 230.4-230.4s-104.96-230.4-230.4-230.4c-40.96 0-74.24 5.12-107.52 25.6 17.92 10.24 33.28 25.6 46.080 40.96 20.48-7.68 35.84-7.68 58.88-7.68 94.72 0 174.080 79.36 174.080 174.080s-79.36 174.080-174.080 174.080c-23.040 0-40.96 0-58.88-7.68-12.8 15.36-30.72 28.16-46.080 40.96 33.28 15.36 66.56 20.48 107.52 20.48zM391.68 678.4c125.44 0 230.4-104.96 230.4-230.4s-104.96-230.4-230.4-230.4c-125.44 0-230.4 104.96-230.4 230.4s102.4 230.4 230.4 230.4zM391.68 622.080c-94.72 0-174.080-79.36-174.080-174.080s79.36-174.080 174.080-174.080 174.080 79.36 174.080 174.080-79.36 174.080-174.080 174.080z" />
<glyph unicode="&#xe93b;" glyph-name="wheelchair" d="M455.68 665.6c10.24 2.56 20.48 10.24 28.16 17.92s12.8 20.48 15.36 30.72c2.56 12.8 0 23.040-5.12 33.28s-12.8 20.48-23.040 25.6c-10.24 5.12-23.040 7.68-33.28 7.68-12.8 0-23.040-5.12-33.28-12.8s-15.36-17.92-20.48-28.16c-2.56-10.24-5.12-23.040 0-33.28 2.56-7.68 5.12-15.36 10.24-20.48s10.24-10.24 17.92-15.36c7.68-5.12 15.36-7.68 23.040-7.68 5.12 0 12.8 0 20.48 2.56zM629.76 266.24c-10.24-23.040-25.6-43.52-43.52-61.44s-40.96-28.16-66.56-35.84c-25.6-7.68-51.2-7.68-74.24-5.12-25.6 5.12-48.64 15.36-69.12 28.16-20.48 15.36-38.4 33.28-51.2 56.32s-20.48 46.080-20.48 71.68c-2.56 25.6 2.56 51.2 12.8 74.24s25.6 43.52 43.52 61.44c-2.56 17.92-5.12 38.4-5.12 56.32-28.16-17.92-51.2-40.96-66.56-69.12-17.92-28.16-28.16-58.88-30.72-92.16s0-66.56 12.8-97.28c10.24-30.72 28.16-58.88 53.76-81.92 23.040-23.040 51.2-40.96 81.92-51.2s64-12.8 97.28-10.24c33.28 5.12 64 15.36 92.16 33.28s51.2 40.96 66.56 69.12c-5.12 7.68-7.68 12.8-12.8 20.48-7.68 15.36-12.8 25.6-20.48 33.28zM686.080 414.72c-2.56 7.68-7.68 15.36-15.36 20.48s-17.92 5.12-25.6 5.12l-97.28-17.92-17.92 64 92.16-12.8c7.68 0 15.36 2.56 23.040 5.12 7.68 5.12 10.24 12.8 12.8 20.48 0 7.68 0 15.36-5.12 23.040s-12.8 10.24-20.48 12.8l-120.32 17.92-20.48 71.68c-7.68 10.24-15.36 17.92-28.16 23.040-10.24 5.12-23.040 5.12-35.84 2.56-15.36-5.12-28.16-15.36-35.84-28.16s-10.24-30.72-5.12-46.080l53.76-197.12c7.68-30.72 35.84-46.080 64-40.96l130.56 28.16 89.6-153.6c0-5.12 2.56-7.68 5.12-12.8 2.56-2.56 5.12-7.68 10.24-10.24s7.68-5.12 12.8-5.12c5.12 0 10.24 0 12.8 0 5.12 0 7.68 2.56 12.8 5.12 2.56 2.56 7.68 5.12 7.68 10.24 2.56 5.12 2.56 7.68 5.12 12.8 0 5.12 0 10.24 0 12.8l-104.96 189.44z" />
<glyph unicode="&#xe93c;" glyph-name="world-location" d="M668.16 232.96h-61.44c7.68 28.16 12.8 58.88 12.8 92.16h74.24c-2.56-33.28-10.24-64-25.6-92.16zM560.64 135.68c15.36 20.48 28.16 46.080 38.4 74.24h53.76c-23.040-33.28-56.32-58.88-92.16-74.24zM494.080 122.88v84.48h61.44c-17.92-40.96-40.96-69.12-61.44-84.48zM494.080 325.12h84.48c0-33.28-5.12-64-15.36-89.6h-71.68v89.6zM453.12 460.8h-69.12c17.92 53.76 46.080 81.92 69.12 97.28v-97.28zM453.12 348.16h-87.040c0 33.28 5.12 64 10.24 89.6h74.24l2.56-89.6zM453.12 232.96h-71.68c-7.68 28.16-12.8 58.88-15.36 89.6h87.040v-89.6zM453.12 122.88c-20.48 15.36-46.080 40.96-64 87.040h64v-87.040zM294.4 209.92h51.2c10.24-28.16 23.040-51.2 38.4-74.24-35.84 15.36-66.56 40.96-89.6 74.24zM279.040 232.96c-15.36 28.16-23.040 58.88-25.6 89.6h74.24c0-33.28 5.12-64 12.8-89.6h-61.44zM276.48 437.76h61.44c-5.12-28.16-10.24-58.88-10.24-89.6h-74.24c0 30.72 7.68 61.44 23.040 89.6zM381.44 540.16c-15.36-23.040-28.16-48.64-38.4-79.36h-53.76c23.040 35.84 53.76 64 92.16 79.36zM709.12 476.16v0h-2.56c-12.8-10.24-28.16-23.040-40.96-33.28v-2.56l2.56-2.56h2.56c12.8-28.16 20.48-58.88 23.040-89.6h-74.24c0 17.92-2.56 33.28-2.56 51.2l-2.56 2.56h-2.56c-7.68-5.12-15.36-12.8-20.48-15.36-2.56-2.56-5.12-5.12-10.24-5.12l-2.56-2.56c0-10.24 2.56-20.48 2.56-28.16h-84.48v89.6h17.92v20.48c0 2.56-2.56 2.56-2.56 2.56h-15.36v97.28c2.56-2.56 7.68-5.12 10.24-7.68h5.12l2.56 2.56c0 20.48 0 38.4 0 56.32l-2.56 2.56c-12.8 2.56-23.040 2.56-33.28 2.56-151.040 0-273.92-122.88-273.92-276.48s117.76-276.48 268.8-276.48 273.92 122.88 273.92 276.48c0 46.080-12.8 92.16-38.4 135.68v0zM755.2 660.48c-17.92-38.4-61.44-53.76-99.84-38.4-38.4 17.92-53.76 61.44-38.4 99.84 17.92 38.4 61.44 53.76 99.84 38.4 38.4-17.92 53.76-64 38.4-99.84zM744.96 819.2c-69.12 30.72-151.040 0-184.32-69.12-53.76-122.88 0-337.92 0-337.92s197.12 102.4 253.44 222.72c30.72 69.12 0 153.6-69.12 184.32z" />
<glyph unicode="&#xe93d;" glyph-name="youtube" d="M960 657.067c-12.8 38.4-42.667 72.533-81.067 81.067-72.533 21.333-366.933 21.333-366.933 21.333s-294.4 0-366.933-21.333c-38.4-12.8-72.533-42.667-81.067-81.067-21.333-72.533-21.333-226.133-21.333-226.133s0-153.6 21.333-226.133c12.8-38.4 42.667-72.533 81.067-81.067 72.533-21.333 366.933-21.333 366.933-21.333s294.4 0 366.933 21.333c38.4 12.8 72.533 42.667 81.067 81.067 21.333 72.533 21.333 226.133 21.333 226.133s0 153.6-21.333 226.133zM418.133 290.133v281.6l243.2-140.8-243.2-140.8z" />
<glyph unicode="&#xe93e;" glyph-name="city" d="M716.8 529.92c7.68 0 15.36 2.56 20.48 7.68l87.040 81.92c5.12 5.12 7.68 12.8 7.68 20.48s-2.56 15.36-7.68 20.48l-87.040 81.92c-5.12 5.12-12.8 7.68-20.48 7.68h-145.92v53.76c0 7.68-2.56 15.36-7.68 20.48-7.68 5.12-15.36 7.68-23.040 7.68h-58.88c-15.36 0-28.16-12.8-28.16-28.16v-53.76h-115.2c-33.28 0-58.88-25.6-58.88-53.76v-110.080c0-30.72 25.6-53.76 58.88-53.76h115.2v-28.16h-145.92c-7.68 0-15.36-2.56-20.48-7.68l-87.040-81.92c-5.12-5.12-7.68-12.8-7.68-20.48s2.56-15.36 7.68-20.48l87.040-81.92c5.12-5.12 12.8-7.68 20.48-7.68h145.92v-192c0-7.68 2.56-15.36 7.68-20.48s12.8-7.68 20.48-7.68h58.88c7.68 0 15.36 2.56 20.48 7.68s7.68 12.8 7.68 20.48v192h115.2c33.28 0 58.88 25.6 58.88 53.76v110.080c0 30.72-25.6 53.76-58.88 53.76h-115.2v28.16h148.48zM599.040 414.72c12.8 0 23.040-10.24 23.040-20.48s-10.24-20.48-23.040-20.48h-174.080c-12.8 0-23.040 10.24-23.040 20.48s10.24 20.48 23.040 20.48h174.080zM424.96 619.52c-12.8 0-23.040 10.24-23.040 20.48s10.24 20.48 23.040 20.48h174.080c12.8 0 23.040-10.24 23.040-20.48s-10.24-20.48-23.040-20.48h-174.080z" />
<glyph unicode="&#xe93f;" glyph-name="finance" d="M542.72 755.2v-61.44h215.040c33.28 0 61.44-28.16 61.44-61.44v-304.64c0-33.28-28.16-61.44-61.44-61.44h-135.68l53.76-94.72-53.76-30.72-71.68 125.44h-76.8l-71.68-125.44-53.76 30.72 53.76 94.72h-135.68c-33.28 0-61.44 28.16-61.44 61.44v304.64c0 33.28 28.16 61.44 61.44 61.44h215.040v61.44h61.44zM542.72 491.52l-61.44 61.44-143.36-143.36 43.52-43.52 102.4 99.84 61.44-61.44 112.64 112.64 40.96-38.4v122.88h-122.88l40.96-38.4-74.24-71.68z" />
<glyph unicode="&#xe940;" glyph-name="call" d="M622.080 253.44c15.36-15.36 15.36-33.28 0-48.64-10.24-10.24-20.48-20.48-30.72-30.72-15.36-15.36-30.72-20.48-51.2-20.48-30.72 2.56-56.32 10.24-84.48 23.040-58.88 28.16-107.52 69.12-151.040 117.76-30.72 35.84-56.32 76.8-74.24 122.88-7.68 23.040-12.8 43.52-12.8 69.12 0 15.36 7.68 28.16 17.92 38.4 12.8 10.24 23.040 23.040 33.28 33.28 15.36 15.36 33.28 15.36 48.64 0l28.16-28.16c7.68-7.68 17.92-17.92 25.6-25.6 15.36-15.36 15.36-33.28 0-48.64-10.24-10.24-23.040-23.040-33.28-33.28-2.56-2.56-2.56-5.12-2.56-7.68 7.68-17.92 17.92-33.28 30.72-48.64 23.040-30.72 51.2-56.32 84.48-76.8 7.68-5.12 15.36-7.68 23.040-12.8 2.56-2.56 5.12 0 10.24 2.56 10.24 10.24 23.040 23.040 33.28 33.28 15.36 15.36 33.28 15.36 48.64 0 20.48-20.48 38.4-38.4 56.32-58.88v0zM806.4 555.52c0-102.4-84.48-186.88-186.88-186.88-35.84 0-69.12 10.24-94.72 25.6-28.16-20.48-56.32-23.040-76.8-20.48-7.68 0-7.68 10.24-2.56 12.8 17.92 7.68 30.72 25.6 35.84 40.96-30.72 33.28-48.64 76.8-48.64 125.44 0 102.4 84.48 186.88 186.88 186.88 102.4 2.56 186.88-81.92 186.88-184.32v0zM642.56 663.040c0 12.8-10.24 23.040-23.040 23.040-71.68 0-130.56-58.88-130.56-130.56 0-12.8 10.24-23.040 23.040-23.040s23.040 10.24 23.040 23.040c0 46.080 38.4 84.48 84.48 84.48 12.8 2.56 23.040 10.24 23.040 23.040v0z" />
<glyph unicode="&#xe941;" glyph-name="time" d="M512 832c-212.48 0-384-171.52-384-384s171.52-384 384-384 384 171.52 384 384-171.52 384-384 384zM686.080 294.4l-207.36 138.24v209.92h64v-174.080l176.64-117.76-33.28-56.32z" />
<glyph unicode="&#xe942;" glyph-name="calendar" d="M128 128c0-35.84 28.16-64 64-64h640c35.84 0 64 28.16 64 64v384h-768v-384zM832 768h-64v33.28c0 15.36-15.36 30.72-30.72 30.72s-30.72-15.36-30.72-30.72v-30.72h-384v30.72c0 17.92-15.36 30.72-30.72 30.72s-35.84-15.36-35.84-30.72v-30.72h-64c-35.84-2.56-64-30.72-64-66.56v-128h768v128c0 35.84-28.16 64-64 64z" />
<glyph unicode="&#xe943;" glyph-name="suitcase-sm" d="M870.4 693.76h-179.2v89.6c0 48.64-40.96 89.6-89.6 89.6h-179.2c-48.64 0-89.6-40.96-89.6-89.6v-89.6h-179.2c-48.64 0-89.6-40.96-89.6-89.6v-491.52c0-48.64 40.96-89.6 89.6-89.6h716.8c48.64 0 89.6 40.96 89.6 89.6v491.52c0 51.2-40.96 89.6-89.6 89.6zM601.6 693.76h-179.2v89.6h179.2v-89.6z" />
</font>
</defs>
</svg>
