<svg width="136" height="66" viewBox="0 0 136 66" fill="none" xmlns="http://www.w3.org/2000/svg">
<path d="M0 65.2588H13.5387C20.6094 65.2588 24.1941 61.0256 24.1941 56.2319C24.1941 53.3028 22.7983 50.6028 20.0983 48.9743C22.0511 47.4375 23.0768 45.3931 23.0768 43.2043C23.0768 39.2494 19.774 36.0384 12.795 36.0384H0V65.2588ZM9.25961 47.3917V42.3654H11.3075C13.0276 42.3654 13.8207 43.2959 13.8207 44.6001C13.8207 45.8091 13.1686 46.9264 11.9596 47.3917H9.25961ZM9.25961 58.9318V53.2569H11.727C13.8665 53.2569 14.8922 54.2791 14.8922 55.9569C14.8922 57.7264 13.7749 58.9354 11.727 58.9354H9.25961V58.9318ZM28.0079 65.2588H37.2676V54.7444H38.1065C39.5939 54.7444 39.9675 55.9076 40.7113 58.0929L43.1786 65.2588H52.3924V64.5151L49.2272 56.5138C48.3883 54.5118 47.5987 53.2569 46.4813 52.7C49.6466 51.0258 51.3667 48.139 51.3667 44.9314C51.3667 39.8134 47.7362 36.0454 40.5245 36.0454H28.0079V65.2588ZM37.2676 48.4174V42.5557H38.8044C40.9439 42.5557 41.9696 43.7189 41.9696 45.3473C41.9696 47.2084 40.8981 48.4174 38.8044 48.4174H37.2676ZM55.5541 54.977C55.5541 63.2109 60.6721 65.8193 67.7429 65.8193C74.8136 65.8193 80.0726 63.1651 80.0726 54.977V36.0384H70.7671V54.5082C70.7671 57.1131 69.9282 58.3714 67.7429 58.3714C65.8818 58.3714 64.8102 57.1624 64.8102 54.5082V36.0384H55.5506V54.977H55.5541ZM83.9322 50.7438C83.9322 61.7235 89.8891 65.8193 97.9362 65.8193C100.774 65.8193 103.565 65.2624 106.452 63.9582L104.869 57.7228H103.939C102.169 58.4666 100.96 58.8402 99.332 58.8402C95.8425 58.8402 93.4244 56.3729 93.4244 50.557C93.4244 45.0653 96.3077 42.5557 99.614 42.5557C100.823 42.5557 102.032 42.6473 103.477 43.1126H104.408L105.99 36.7856C103.477 35.8551 101.013 35.4814 98.546 35.4814C90.7738 35.4814 83.9322 40.0425 83.9322 50.7438ZM119.853 50.2785L126.6 65.2588H135.997V64.3283L129.25 49.9049L135.718 36.9689V36.0384H126.691L119.853 50.2785ZM110.22 65.2588H119.48V36.0384H110.22V65.2588Z" fill="#E2001A"/>
<path d="M0 30.3638H9.25961V1.14328H0V30.3638ZM14.6561 30.3638H23.8205V19.1514L24.4726 20.2229L31.2649 30.3638H39.2203V1.14328H30.1017V12.4508L29.4496 11.3793L22.6115 1.14328H14.6561V30.3638ZM45.1314 30.3638H54.2958V19.1514L54.9479 20.2229L61.7402 30.3673H69.6956V1.14328H60.577V12.4508L59.9249 11.3793L53.0868 1.14328H45.1314V30.3638ZM73.4671 28.5027C75.9345 29.9443 79.4698 30.9207 83.2836 30.9207C90.9606 30.9207 95.705 27.3853 95.705 20.7763C95.705 9.98345 83.2836 12.5883 83.2836 8.95773C83.2836 7.84038 84.3058 7.18829 86.3537 7.18829C87.9822 7.18829 89.7974 7.60774 91.3801 8.39729H92.3106L94.8696 2.81403C92.5433 1.41822 89.0079 0.579316 85.7052 0.579316C79.0045 0.579316 74.2108 4.02303 74.2108 9.9764C74.2108 21.1887 86.7274 18.2103 86.7274 22.0735C86.7274 23.5609 85.2857 24.3082 83.2836 24.3082C81.2357 24.3082 78.8636 23.7971 76.9108 22.7255H75.9803L73.4671 28.5027ZM98.1265 12.1265H99.0571L102.592 11.5696L105.941 1.05516V0.121094L99.8008 1.14328L98.1265 11.1924V12.1265Z" fill="#E2001A"/>
</svg>
